<?xml version="1.0" encoding="UTF-8"?>
<svg id="Capa_1" xmlns="http://www.w3.org/2000/svg" version="1.1" viewBox="0 0 87.72 87.72">
  <!-- Generator: Adobe Illustrator 29.8.1, SVG Export Plug-In . SVG Version: 2.1.1 Build 2)  -->
  <defs>
    <style>
      .st0 {
        fill: #238ae5;
      }

      .st1 {
        fill: #fff;
      }
    </style>
  </defs>
  <rect class="st0" x="1.41" y="1.41" width="84.9" height="84.9" rx="22.89" ry="22.89"/>
  <path class="st1" d="M58.19,18.07h-28.66c-3.69,0-6.7,3.01-6.7,6.7v45.85c0,.36.2.69.51.85.14.08.3.11.46.11.19,0,.37-.05.54-.16l7.94-5.29,5.17,5.17c.38.38.99.38,1.37,0l5.05-5.05,5.05,5.05c.38.38.99.38,1.37,0l5.17-5.17,7.94,5.29c.3.2.68.22.99.05.31-.17.51-.5.51-.85V24.77c0-3.69-3.01-6.7-6.7-6.7Z"/>
  <path class="st0" d="M43.86,57.24c-.8,0-1.45-.65-1.45-1.45v-2.85h-2.27c-.8,0-1.45-.65-1.45-1.45s.65-1.45,1.45-1.45h5.15c1.57,0,2.85-1.28,2.85-2.85s-1.28-2.85-2.85-2.85h-2.87c-3.17,0-5.75-2.58-5.75-5.75s2.57-5.74,5.73-5.75v-2.85c0-.8.65-1.45,1.45-1.45s1.45.65,1.45,1.45v2.85h2.27c.8,0,1.45.65,1.45,1.45s-.65,1.45-1.45,1.45h-5.15c-1.57,0-2.85,1.28-2.85,2.85s1.28,2.85,2.85,2.85h2.87c3.17,0,5.75,2.58,5.75,5.75s-2.57,5.74-5.73,5.75v2.85c0,.8-.65,1.45-1.45,1.45Z"/>
</svg>